<mxfile host="65bd71144e">
    <diagram id="6X3TZABJGBDl5y4SKnyj" name="Page-1">
        <mxGraphModel dx="1980" dy="846" grid="1" gridSize="10" guides="1" tooltips="1" connect="1" arrows="1" fold="1" page="1" pageScale="1" pageWidth="827" pageHeight="1169" math="0" shadow="0">
            <root>
                <mxCell id="0"/>
                <mxCell id="1" parent="0"/>
                <mxCell id="2" value="" style="sketch=0;outlineConnect=0;fontColor=#232F3E;gradientColor=none;fillColor=#3F8624;strokeColor=none;dashed=0;verticalLabelPosition=bottom;verticalAlign=top;align=center;html=1;fontSize=12;fontStyle=0;aspect=fixed;pointerEvents=1;shape=mxgraph.aws4.car;" vertex="1" parent="1">
                    <mxGeometry x="270" y="190" width="78" height="78" as="geometry"/>
                </mxCell>
                <mxCell id="3" value="" style="html=1;shadow=0;dashed=0;align=center;verticalAlign=middle;shape=mxgraph.arrows2.quadArrow;dy=10;dx=20;notch=24;arrowHead=10;" vertex="1" parent="1">
                    <mxGeometry x="30" y="500" width="100" height="100" as="geometry"/>
                </mxCell>
                <mxCell id="4" value="" style="shape=mxgraph.signs.sports.ranger_station_2;html=1;pointerEvents=1;fillColor=#000000;strokeColor=none;verticalLabelPosition=bottom;verticalAlign=top;align=center;" vertex="1" parent="1">
                    <mxGeometry x="540" y="352" width="95" height="98" as="geometry"/>
                </mxCell>
                <mxCell id="5" value="source" style="ellipse;shape=cloud;whiteSpace=wrap;html=1;" vertex="1" parent="1">
                    <mxGeometry x="-100" y="370" width="120" height="80" as="geometry"/>
                </mxCell>
                <mxCell id="7" value="distance" style="ellipse;shape=cloud;whiteSpace=wrap;html=1;" vertex="1" parent="1">
                    <mxGeometry x="-160" y="460" width="120" height="80" as="geometry"/>
                </mxCell>
                <mxCell id="8" value="route_id" style="ellipse;shape=cloud;whiteSpace=wrap;html=1;" vertex="1" parent="1">
                    <mxGeometry x="-150" y="560" width="120" height="80" as="geometry"/>
                </mxCell>
                <mxCell id="9" value="destination" style="ellipse;shape=cloud;whiteSpace=wrap;html=1;" vertex="1" parent="1">
                    <mxGeometry x="40" y="340" width="120" height="80" as="geometry"/>
                </mxCell>
                <mxCell id="12" value="lPlate_num" style="ellipse;shape=cloud;whiteSpace=wrap;html=1;" vertex="1" parent="1">
                    <mxGeometry x="130" y="220" width="120" height="80" as="geometry"/>
                </mxCell>
                <mxCell id="13" value="driver_name" style="ellipse;shape=cloud;whiteSpace=wrap;html=1;" vertex="1" parent="1">
                    <mxGeometry x="380" y="150" width="120" height="80" as="geometry"/>
                </mxCell>
                <mxCell id="14" value="capacity" style="ellipse;shape=cloud;whiteSpace=wrap;html=1;" vertex="1" parent="1">
                    <mxGeometry x="260" y="70" width="120" height="80" as="geometry"/>
                </mxCell>
                <mxCell id="15" value="model" style="ellipse;shape=cloud;whiteSpace=wrap;html=1;" vertex="1" parent="1">
                    <mxGeometry x="150" y="120" width="120" height="80" as="geometry"/>
                </mxCell>
                <mxCell id="16" value="city" style="ellipse;shape=cloud;whiteSpace=wrap;html=1;" vertex="1" parent="1">
                    <mxGeometry x="380" y="390" width="120" height="80" as="geometry"/>
                </mxCell>
                <mxCell id="17" value="station_id" style="ellipse;shape=cloud;whiteSpace=wrap;html=1;" vertex="1" parent="1">
                    <mxGeometry x="670" y="330" width="120" height="80" as="geometry"/>
                </mxCell>
                <mxCell id="18" value="phone" style="ellipse;shape=cloud;whiteSpace=wrap;html=1;" vertex="1" parent="1">
                    <mxGeometry x="540" y="240" width="120" height="80" as="geometry"/>
                </mxCell>
                <mxCell id="19" value="adress" style="ellipse;shape=cloud;whiteSpace=wrap;html=1;" vertex="1" parent="1">
                    <mxGeometry x="414" y="280" width="120" height="80" as="geometry"/>
                </mxCell>
            </root>
        </mxGraphModel>
    </diagram>
    <diagram id="wImn525dRjUuq2nK2W4x" name="Page-2">
        <mxGraphModel dx="1980" dy="846" grid="1" gridSize="10" guides="1" tooltips="1" connect="1" arrows="1" fold="1" page="1" pageScale="1" pageWidth="827" pageHeight="1169" math="0" shadow="0">
            <root>
                <mxCell id="bLwpqAPNJArH6Pmy92z6-0"/>
                <mxCell id="bLwpqAPNJArH6Pmy92z6-1" parent="bLwpqAPNJArH6Pmy92z6-0"/>
                <mxCell id="bLwpqAPNJArH6Pmy92z6-2" value="" style="sketch=0;outlineConnect=0;fontColor=#232F3E;gradientColor=none;fillColor=#3F8624;strokeColor=none;dashed=0;verticalLabelPosition=bottom;verticalAlign=top;align=center;html=1;fontSize=12;fontStyle=0;aspect=fixed;pointerEvents=1;shape=mxgraph.aws4.car;" vertex="1" parent="bLwpqAPNJArH6Pmy92z6-1">
                    <mxGeometry x="270" y="640" width="78" height="78" as="geometry"/>
                </mxCell>
                <mxCell id="bLwpqAPNJArH6Pmy92z6-3" value="" style="html=1;shadow=0;dashed=0;align=center;verticalAlign=middle;shape=mxgraph.arrows2.quadArrow;dy=10;dx=20;notch=24;arrowHead=10;" vertex="1" parent="bLwpqAPNJArH6Pmy92z6-1">
                    <mxGeometry x="30" y="950" width="100" height="100" as="geometry"/>
                </mxCell>
                <mxCell id="bLwpqAPNJArH6Pmy92z6-4" value="" style="shape=mxgraph.signs.sports.ranger_station_2;html=1;pointerEvents=1;fillColor=#000000;strokeColor=none;verticalLabelPosition=bottom;verticalAlign=top;align=center;" vertex="1" parent="bLwpqAPNJArH6Pmy92z6-1">
                    <mxGeometry x="540" y="802" width="95" height="98" as="geometry"/>
                </mxCell>
                <mxCell id="bLwpqAPNJArH6Pmy92z6-5" value="source" style="ellipse;shape=cloud;whiteSpace=wrap;html=1;" vertex="1" parent="bLwpqAPNJArH6Pmy92z6-1">
                    <mxGeometry x="-100" y="820" width="120" height="80" as="geometry"/>
                </mxCell>
                <mxCell id="bLwpqAPNJArH6Pmy92z6-6" value="distance" style="ellipse;shape=cloud;whiteSpace=wrap;html=1;" vertex="1" parent="bLwpqAPNJArH6Pmy92z6-1">
                    <mxGeometry x="-160" y="910" width="120" height="80" as="geometry"/>
                </mxCell>
                <mxCell id="bLwpqAPNJArH6Pmy92z6-7" value="route_id" style="ellipse;shape=cloud;whiteSpace=wrap;html=1;" vertex="1" parent="bLwpqAPNJArH6Pmy92z6-1">
                    <mxGeometry x="-150" y="1010" width="120" height="80" as="geometry"/>
                </mxCell>
                <mxCell id="bLwpqAPNJArH6Pmy92z6-8" value="destination" style="ellipse;shape=cloud;whiteSpace=wrap;html=1;" vertex="1" parent="bLwpqAPNJArH6Pmy92z6-1">
                    <mxGeometry x="40" y="790" width="120" height="80" as="geometry"/>
                </mxCell>
                <mxCell id="bLwpqAPNJArH6Pmy92z6-9" value="lPlate_num" style="ellipse;shape=cloud;whiteSpace=wrap;html=1;" vertex="1" parent="bLwpqAPNJArH6Pmy92z6-1">
                    <mxGeometry x="130" y="670" width="120" height="80" as="geometry"/>
                </mxCell>
                <mxCell id="bLwpqAPNJArH6Pmy92z6-10" value="driver_name" style="ellipse;shape=cloud;whiteSpace=wrap;html=1;" vertex="1" parent="bLwpqAPNJArH6Pmy92z6-1">
                    <mxGeometry x="380" y="600" width="120" height="80" as="geometry"/>
                </mxCell>
                <mxCell id="bLwpqAPNJArH6Pmy92z6-11" value="capacity" style="ellipse;shape=cloud;whiteSpace=wrap;html=1;" vertex="1" parent="bLwpqAPNJArH6Pmy92z6-1">
                    <mxGeometry x="260" y="520" width="120" height="80" as="geometry"/>
                </mxCell>
                <mxCell id="bLwpqAPNJArH6Pmy92z6-12" value="model" style="ellipse;shape=cloud;whiteSpace=wrap;html=1;" vertex="1" parent="bLwpqAPNJArH6Pmy92z6-1">
                    <mxGeometry x="150" y="570" width="120" height="80" as="geometry"/>
                </mxCell>
                <mxCell id="bLwpqAPNJArH6Pmy92z6-13" value="city" style="ellipse;shape=cloud;whiteSpace=wrap;html=1;" vertex="1" parent="bLwpqAPNJArH6Pmy92z6-1">
                    <mxGeometry x="380" y="840" width="120" height="80" as="geometry"/>
                </mxCell>
                <mxCell id="bLwpqAPNJArH6Pmy92z6-14" value="station_id" style="ellipse;shape=cloud;whiteSpace=wrap;html=1;" vertex="1" parent="bLwpqAPNJArH6Pmy92z6-1">
                    <mxGeometry x="670" y="780" width="120" height="80" as="geometry"/>
                </mxCell>
                <mxCell id="bLwpqAPNJArH6Pmy92z6-15" value="phone" style="ellipse;shape=cloud;whiteSpace=wrap;html=1;" vertex="1" parent="bLwpqAPNJArH6Pmy92z6-1">
                    <mxGeometry x="540" y="690" width="120" height="80" as="geometry"/>
                </mxCell>
                <mxCell id="bLwpqAPNJArH6Pmy92z6-16" value="adress" style="ellipse;shape=cloud;whiteSpace=wrap;html=1;" vertex="1" parent="bLwpqAPNJArH6Pmy92z6-1">
                    <mxGeometry x="414" y="730" width="120" height="80" as="geometry"/>
                </mxCell>
                <mxCell id="bLwpqAPNJArH6Pmy92z6-17" value="bus" style="rounded=0;whiteSpace=wrap;html=1;" vertex="1" parent="bLwpqAPNJArH6Pmy92z6-1">
                    <mxGeometry x="354" y="270" width="120" height="60" as="geometry"/>
                </mxCell>
                <mxCell id="bLwpqAPNJArH6Pmy92z6-18" value="route" style="rounded=0;whiteSpace=wrap;html=1;" vertex="1" parent="bLwpqAPNJArH6Pmy92z6-1">
                    <mxGeometry x="60" y="420" width="120" height="60" as="geometry"/>
                </mxCell>
                <mxCell id="bLwpqAPNJArH6Pmy92z6-19" value="station" style="rounded=0;whiteSpace=wrap;html=1;" vertex="1" parent="bLwpqAPNJArH6Pmy92z6-1">
                    <mxGeometry x="650" y="430" width="120" height="60" as="geometry"/>
                </mxCell>
            </root>
        </mxGraphModel>
    </diagram>
</mxfile>